<?xml version="1.0" encoding="UTF-8" standalone="no"?>
<svg
   xmlns:dc="http://purl.org/dc/elements/1.1/"
   xmlns:cc="http://creativecommons.org/ns#"
   xmlns:rdf="http://www.w3.org/1999/02/22-rdf-syntax-ns#"
   xmlns:svg="http://www.w3.org/2000/svg"
   xmlns="http://www.w3.org/2000/svg"
   xmlns:sodipodi="http://sodipodi.sourceforge.net/DTD/sodipodi-0.dtd"
   xmlns:inkscape="http://www.inkscape.org/namespaces/inkscape"
   inkscape:version="0.92.4 (5da689c313, 2019-01-14)"
   sodipodi:docname="app_icon.svg"
   id="svg6976"
   height="170.07869"
   width="283.46457"
   version="1.1">
  <sodipodi:namedview
     inkscape:current-layer="layer1"
     inkscape:window-maximized="0"
     inkscape:window-y="0"
     inkscape:window-x="0"
     inkscape:cy="46.081809"
     inkscape:cx="80.902023"
     inkscape:zoom="1.4142136"
     showgrid="false"
     id="namedview58"
     inkscape:window-height="900"
     inkscape:window-width="1440"
     inkscape:pageshadow="2"
     inkscape:pageopacity="0"
     guidetolerance="10"
     gridtolerance="10"
     objecttolerance="10"
     borderopacity="1"
     inkscape:document-rotation="0"
     bordercolor="#666666"
     pagecolor="#ffffff" />
  <defs
     id="defs6978" />
  <metadata
     id="metadata6981">
    <rdf:RDF>
      <cc:Work
         rdf:about="">
        <dc:format>image/svg+xml</dc:format>
        <dc:type
           rdf:resource="http://purl.org/dc/dcmitype/StillImage" />
        <dc:title />
      </cc:Work>
    </rdf:RDF>
  </metadata>
  <g
     id="layer1"
     transform="translate(116.09969,-235.46345)">
    <path
       style="fill:#ffffff;fill-opacity:1;stroke:none;stroke-width:0.91269201"
       id="rect4362"
       d="m -16.841591,241.82741 c -37.706938,0 -68.262437,29.67284 -68.262437,66.29055 0,36.61773 30.555499,66.31909 68.262437,66.31909 26.2882337,0 49.093731,-14.44664 60.508012,-35.59837 -7.919858,0.47119 -9.496405,-2.43375 -13.805224,3.16619 -10.636009,13.78589 -27.6027423,22.70539 -46.702788,22.70539 -32.188851,0 -58.275679,-25.33327 -58.275679,-56.5923 0,-31.25902 26.086828,-56.59228 58.275679,-56.59228 1.67145,0 3.328294,0.0944 4.96401,0.22819 v 70.91151 c 0,6.4685 3.3371753,6.47493 6.6676347,6.47503 h 6.6382529 c -3.5450232,0 -6.6382529,-3.29943 -6.6382529,-9.69829 v -66.77546 c 3.4519631,0.67755 6.7852694,1.63951 9.9867553,2.88095 v 67.11777 c 0,6.4685 3.3371669,6.47503 6.667625,6.47503 h 6.638255 c -3.545014,0 -6.638255,-3.29943 -6.638255,-9.69829 v -60.81389 c 3.589982,1.9372 6.941853,4.2145 10.016137,6.81732 3.822427,4.02295 10.372242,2.25344 15.802577,2.25344 -12.488547,-15.7292 -32.0708815,-25.87158 -54.104739,-25.87158 z m 38.625255,35.54132 c -0.199934,-0.002 -0.319908,0.0201 -0.352473,0.0285 v 6.4465 c 0.260474,-0.0678 6.638274,0.0176 6.638265,3.25177 v -6.47503 c 9e-6,-2.82998 -4.886207,-3.24001 -6.285792,-3.25177 v -6e-5 z m -50.315641,0.0285 v 8.1009 c -4.179398,-3.05608 -9.373499,-4.87766 -15.009508,-4.87766 -13.79986,0 -24.966902,10.87297 -24.966902,24.2742 0,13.40125 11.167042,24.27422 24.966902,24.27422 5.636009,0 10.83011,-1.8481 15.009508,-4.90618 v -1.59736 c 0,6.4685 3.33718,6.47503 6.667631,6.47503 h 6.638262 c -3.545024,0 -6.638262,-3.29943 -6.638262,-9.69828 v -38.99278 c 0,-2.63245 -3.490863,-2.84188 -6.667631,-3.05209 z m 119.958609,0 c -3.176761,0.21021 -6.667635,0.44816 -6.667635,3.08062 v 38.96425 c 0,6.39885 -1.568716,9.69828 -3.348501,9.69828 h 3.348501 c 3.33046,0 6.667635,-0.007 6.667635,-6.47503 v -30.83478 c 3.675666,-3.97234 8.987008,-6.47501 14.921398,-6.47501 0.30397,0 0.60981,0.0157 0.91054,0.0285 -1.66377,-1.31541 -3.16725,-2.8225 -4.43528,-4.50684 -4.231153,0.58308 -8.127724,2.19114 -11.396658,4.56388 v -8.04385 -6e-5 z m 49.904418,0 v 8.07238 c -4.17044,-3.03324 -9.33807,-4.84914 -14.95076,-4.84914 -13.79985,0 -24.96689,10.87297 -24.96689,24.2742 0,13.40125 11.16704,24.27422 24.96689,24.27422 5.63601,0 10.83012,-1.8481 15.00951,-4.90618 v -0.19968 c 0.46327,5.06055 3.51072,5.07735 6.57951,5.07735 h 6.66764 c -3.54503,0 -6.66764,-3.29943 -6.66764,-9.69828 v -38.99278 c 0,-2.63245 -3.46149,-2.84188 -6.63826,-3.05209 z m -81.627062,3.22324 c -13.799865,0 -24.966898,10.87297 -24.966898,24.2742 0,13.40125 11.167033,24.27422 24.966898,24.27422 3.379872,0 6.582043,-0.68801 9.516795,-1.8826 -8.963202,38.11298 -44.101613,66.54727 -86.062374,66.54727 -44.114155,0 -80.691621,-31.42094 -87.237289,-72.48033 6.58279,42.84347 44.63504,75.70356 90.585792,75.70356 50.582486,0 91.584462,-39.81753 91.584462,-88.93886 l 0.0294,-1.62589 v -9.4986 c -3.176771,0.2102 -6.667636,0.41964 -6.667636,3.0521 v 6.4465 l -0.0294,1.62589 c 0,4.50743 -0.337477,8.9442 -1.028047,13.26382 -3.097639,1.89295 -6.764909,3.02358 -10.691703,3.02358 -11.107205,0 -20.091015,-8.72434 -20.091015,-19.51066 0,-10.78639 8.98381,-19.53915 20.091015,-19.53915 2.957543,0 5.779742,0.62218 8.312506,1.73998 0.37832,0.16697 0.7508,0.32492 1.116168,0.51344 0.340115,0.17497 0.704472,0.28523 1.116167,0.28523 1.34644,0 2.437938,-1.05997 2.437938,-2.36752 0,-0.9106 -0.545553,-1.68621 -1.321769,-2.08226 -3.482624,-1.79408 -7.443424,-2.82392 -11.66101,-2.82392 z m -103.245473,4.73505 c 5.960955,0 11.326328,2.53072 15.009508,6.53206 v 25.98568 c -3.683358,4.0051 -9.04534,6.53207 -15.009508,6.53207 -11.107205,0 -20.09101,-8.72434 -20.09101,-19.51066 0,-10.78639 8.983805,-19.53915 20.09101,-19.53915 z m 169.921775,0 c 5.93057,0 11.26932,2.50903 14.95076,6.47501 v 26.09977 c -3.68161,3.97038 -9.01637,6.47503 -14.95076,6.47503 -11.10721,0 -20.09101,-8.72434 -20.09101,-19.51066 0,-10.78639 8.9838,-19.53915 20.09101,-19.53915 z m -104.949099,4.96323 v 32.3466 c 0,6.4685 3.307815,6.47503 6.638265,6.47503 h 6.667634 c -3.545033,0 -6.667634,-3.29943 -6.667634,-9.69828 V 293.542 c 9e-6,-3.23435 -3.307797,-3.22325 -6.638265,-3.22325 z"
       inkscape:connector-curvature="0" />
  </g>
</svg>
